# xmcd
#
# Track frame offsets: 
#        150
#        20257
#        39914
#        68279
#        96524
#        117306
#        138883
#        160978
#        193198
#
# Disc length: 2765 seconds
#
# Revision: 0
# Processed by: cddbd v1.5.2PL0 Copyright (c) Steve Scherf et al.
# Submitted via: ExactAudioCopy v1.0b1
#
DISCID=6f0acb09
DTITLE=Swamp Donkey - Kicking It (Live)
DYEAR=2011
DGENRE=Blues
TTITLE0=Messing With The Kid
TTITLE1=Keep On Talking
TTITLE2=I Wonder Why
TTITLE3=Someday Baby
TTITLE4=You Done Me Wrong
TTITLE5=Old Man Down The Road
TTITLE6=Jesus Just Left Chicago
TTITLE7=Red House
TTITLE8=Working Man Blues
EXTD=
EXTT0=
EXTT1=
EXTT2=
EXTT3=
EXTT4=
EXTT5=
EXTT6=
EXTT7=
EXTT8=
PLAYORDER=
